<svg xmlns:dc="http://purl.org/dc/elements/1.1/" xmlns:cc="http://creativecommons.org/ns#" xmlns:rdf="http://www.w3.org/1999/02/22-rdf-syntax-ns#" xmlns:svg="http://www.w3.org/2000/svg" xmlns="http://www.w3.org/2000/svg" xmlns:sodipodi="http://sodipodi.sourceforge.net/DTD/sodipodi-0.dtd" xmlns:inkscape="http://www.inkscape.org/namespaces/inkscape" version="1.1" x="0px" y="0px" viewBox="0 0 100 125"><g transform="translate(0,-952.36218)"><path style="text-indent:0;text-transform:none;direction:ltr;block-progression:tb;baseline-shift:baseline;color:#000000;enable-background:accumulate;" d="m 50.000003,958.36217 c -4.0658,0 -7.4731,2.49477 -9.0312,6 l -6.9688,0 c -1.0472,10e-5 -1.9999,0.95283 -2,2 l 0,2 -14,0 c -1.0627,-7e-4 -2.0028,0.98937 -2,2 l 0,74.00003 c 10e-5,1.0472 0.9528,1.9999 2,2 l 64,0 c 1.0472,-10e-5 1.9999,-0.9528 2,-2 l 0,-74.00003 c -1e-4,-1.04717 -0.9528,-1.9999 -2,-2 l -14,0 0,-2 c -1e-4,-1.04717 -0.9528,-1.9999 -2,-2 l -6.9688,0 c -1.5582,-3.50523 -4.9654,-6 -9.0312,-6 z m 0,4 c 2.8324,0 5.1496,1.88045 5.8125,4.46875 0.208,0.86248 1.0503,1.52817 1.9375,1.53125 l 6.25,0 0,6 -28,0 0,-6 6.25,0 c 0.8872,-0.003 1.7295,-0.66877 1.9375,-1.53125 0.6629,-2.5883 2.9801,-4.46875 5.8125,-4.46875 z m -30,10 12,0 0,4 c 1e-4,1.04717 0.9528,1.9999 2,2 l 32,0 c 1.0472,-10e-5 1.9999,-0.95283 2,-2 l 0,-4 12,0 0,70.00003 -60,0 0,-70.00003 z m 33,17 0,15.00003 15,0 c 0,-8.28431 -6.7157,-15.00003 -15,-15.00003 z m -5,4 c -8.8366,0 -16,7.16353 -16,16.00003 0,8.8366 7.1634,16 16,16 8.8366,0 16,-7.1634 16,-16 l -16,0 0,-16.00003 z" fill="#000000" fill-opacity="1" stroke="none" marker="none" visibility="visible" display="inline" overflow="visible"/></g><text x="0" y="115" fill="#000000" font-size="5px" font-weight="bold" font-family="'Helvetica Neue', Helvetica, Arial-Unicode, Arial, Sans-serif">Created by unlimicon</text><text x="0" y="120" fill="#000000" font-size="5px" font-weight="bold" font-family="'Helvetica Neue', Helvetica, Arial-Unicode, Arial, Sans-serif">from the Noun Project</text></svg>