<svg xmlns="http://www.w3.org/2000/svg" xmlns:xlink="http://www.w3.org/1999/xlink" version="1.1" x="0px" y="0px" viewBox="0 0 100 125" enable-background="new 0 0 100 100" xml:space="preserve"><g><path fill="none" d="M86.748,34.875c-4.238-4.149-11.627-3.994-16.038-3.902c-0.591,0.012-1.125,0.023-1.589,0.023   c-1.273,0-2.326-0.991-2.401-2.265c-0.011-0.176-1.516-17.788-18.12-17.788c-6.786,0-11.925,1.969-15.276,5.85   c-6.2,7.184-4.59,18.636-4.574,18.752c0.102,0.693-0.102,1.395-0.559,1.924s-1.122,0.834-1.821,0.834   c-0.475,0-1.064-0.026-1.74-0.054c-0.83-0.038-1.798-0.08-2.831-0.08c-3.211,0-7.062,0.411-9.452,2.699   c-1.708,1.633-2.537,4.076-2.537,7.466c0,3.43,1.01,6.136,3.001,8.044c3.95,3.785,10.581,3.545,10.651,3.543l40.371-0.002   l1.386,0.002c7.429,0.035,16.685,0.042,21.464-4.722c2.357-2.352,3.504-5.716,3.504-10.285   C90.189,40.489,89.031,37.111,86.748,34.875z"/><path d="M90.115,31.438c-5.444-5.333-13.922-5.377-18.874-5.288C69.975,18.98,64.427,6.132,48.6,6.132   c-8.247,0-14.612,2.53-18.918,7.518c-5.577,6.463-6.083,15.268-5.921,19.748c-4.07-0.162-10.496-0.066-14.739,3.994   C6.353,39.944,5,43.625,5,48.333c0,4.807,1.518,8.692,4.512,11.544c4.752,4.532,11.706,4.861,13.584,4.861   c0.278,0,0.446-0.007,0.477-0.009l41.636,0.002c8.314,0.033,18.683,0.047,24.874-6.127C93.346,55.348,95,50.744,95,44.913   C95,39.145,93.357,34.611,90.115,31.438z M86.685,55.198c-4.778,4.764-14.034,4.757-21.464,4.722l-1.386-0.002L23.464,59.92   c-0.07,0.002-6.701,0.242-10.651-3.543c-1.991-1.908-3.001-4.614-3.001-8.044c0-3.39,0.829-5.833,2.537-7.466   c2.39-2.288,6.241-2.699,9.452-2.699c1.032,0,2,0.042,2.831,0.08c0.675,0.028,1.265,0.054,1.74,0.054   c0.699,0,1.364-0.305,1.821-0.834s0.661-1.231,0.559-1.924c-0.016-0.115-1.626-11.568,4.574-18.752   c3.351-3.881,8.49-5.85,15.276-5.85c16.603,0,18.109,17.612,18.12,17.788c0.075,1.273,1.128,2.265,2.401,2.265   c0.464,0,0.998-0.012,1.589-0.023c4.411-0.092,11.8-0.247,16.038,3.902c2.282,2.236,3.44,5.615,3.44,10.038   C90.189,49.482,89.042,52.846,86.685,55.198z"/><path d="M50.428,81.354c9.107,0,12.113-6.084,12.237-6.343c0.565-1.186,0.066-2.587-1.11-3.171   c-1.179-0.587-2.611-0.099-3.216,1.067c-0.078,0.148-1.955,3.637-7.911,3.637c-5.905,0-7.801-3.425-7.909-3.632   c-0.583-1.179-2.005-1.673-3.193-1.106c-1.199,0.571-1.708,2.006-1.137,3.207C38.313,75.269,41.319,81.354,50.428,81.354z"/><path d="M71.145,80.713c-1.133-0.693-2.606-0.327-3.301,0.796c-0.191,0.308-4.821,7.548-17.416,7.548   c-12.445,0-16.385-7.081-16.56-7.407c-0.607-1.172-2.045-1.633-3.225-1.036c-1.184,0.604-1.655,2.053-1.052,3.237   c0.208,0.409,5.279,10.017,20.838,10.017c15.449,0,21.293-9.472,21.534-9.874C72.641,82.86,72.274,81.399,71.145,80.713z"/></g><text x="0" y="115" fill="#000000" font-size="5px" font-weight="bold" font-family="'Helvetica Neue', Helvetica, Arial-Unicode, Arial, Sans-serif">Created by Valeriy</text><text x="0" y="120" fill="#000000" font-size="5px" font-weight="bold" font-family="'Helvetica Neue', Helvetica, Arial-Unicode, Arial, Sans-serif">from the Noun Project</text></svg>