<svg xmlns:dc="http://purl.org/dc/elements/1.1/" xmlns:cc="http://creativecommons.org/ns#" xmlns:rdf="http://www.w3.org/1999/02/22-rdf-syntax-ns#" xmlns:svg="http://www.w3.org/2000/svg" xmlns="http://www.w3.org/2000/svg" xmlns:sodipodi="http://sodipodi.sourceforge.net/DTD/sodipodi-0.dtd" xmlns:inkscape="http://www.inkscape.org/namespaces/inkscape" version="1.1" x="0px" y="0px" viewBox="0 0 100 125"><g transform="translate(0,-952.36218)"><path style="text-indent:0;text-transform:none;direction:ltr;block-progression:tb;baseline-shift:baseline;color:#000000;enable-background:accumulate;" d="m 46.687524,961.15916 c -5.905205,0 -10.750004,4.7925 -10.750004,10.6875 0,4.18728 2.469295,7.83429 5.999988,9.59375 l -3.124984,11.1875 c -0.541311,-0.067 -1.097823,-0.0937 -1.656213,-0.0937 -3.434279,0 -6.569681,1.30076 -8.937602,3.4375 l -4.656189,-3.78125 c 0.656504,-1.2759 1.031209,-2.72575 1.031209,-4.25 0,-5.18045 -4.260224,-9.375 -9.406205,-9.375 -5.145909,-5e-5 -9.375023,4.1945 -9.375023,9.37495 0,5.15152 4.216216,9.375 9.375023,9.375 2.201776,0 4.234677,-0.78085 5.843799,-2.0625 l 4.656189,3.8125 c -1.196185,2.00019 -1.875011,4.32299 -1.875011,6.81249 0,7.3448 5.983121,13.3125 13.34381,13.3125 0.94089,0 1.861902,-0.096 2.749996,-0.2812 l 3.031193,8.1875 c -2.592,1.5522 -4.343775,4.3764 -4.343775,7.5937 0,4.8716 4.028492,8.875 8.906279,8.875 4.877716,0 8.875027,-4.0034 8.875027,-8.875 0,-4.8715 -3.997311,-8.8437 -8.875027,-8.8437 -0.25239,0 -0.502795,0.01 -0.749976,0.031 l -3.093697,-8.3437 c 1.844681,-1.0212 3.412098,-2.4863 4.593685,-4.2188 l 13.937491,6.6875 c -0.02328,0.202 -0.03118,0.4172 -0.03118,0.625 0,2.9796 2.459303,5.4375 5.437382,5.4375 2.97861,0 5.437595,-2.4579 5.437595,-5.4375 0,-2.9795 -2.458985,-5.4375 -5.437595,-5.4375 -1.321689,0 -2.519893,0.515 -3.468685,1.3125 l -14.156327,-6.7812 c 0.369319,-1.2151 0.593823,-2.5097 0.593823,-3.8438 0,-0.4492 -0.0186,-0.9058 -0.0625,-1.3438 l 27.499991,-7.06244 c 1.439894,2.73654 4.300512,4.62494 7.593697,4.62494 4.723191,0 8.593791,-3.87975 8.593791,-8.62494 0,-4.71751 -3.8706,-8.59375 -8.593791,-8.59375 -4.722591,0 -8.625012,3.87624 -8.625012,8.59375 l 0,0.15625 -27.468672,7.03119 c -1.3168,-3.07226 -3.769122,-5.55416 -6.812504,-6.93744 l 3.093803,-11.21875 c 0.299303,0.0254 0.600201,0.0625 0.906201,0.0625 5.905275,0 10.750003,-4.82375 10.750003,-10.71875 0,-5.895 -4.844728,-10.6875 -10.750003,-10.6875 z m 0,4 c 3.749598,0 6.749999,2.96476 6.749999,6.6875 0,3.72274 -3.000401,6.71875 -6.749999,6.71875 -3.749492,0 -6.75,-2.99601 -6.75,-6.71875 0,-3.72274 3.000508,-6.6875 6.75,-6.6875 z m -31.5,17.40625 c 3.005292,0 5.406201,2.35671 5.406201,5.375 0,2.96837 -2.413807,5.375 -5.406201,5.375 -2.992323,0 -5.375019,-2.40663 -5.375019,-5.375 0,-3.01829 2.369799,-5.375 5.375019,-5.375 z m 70.406184,6.3125 c 2.557594,0 4.593791,2.05853 4.593791,4.59375 0,2.58637 -2.036197,4.625 -4.593791,4.625 -2.672079,0.039 -4.43491,-1.35939 -4.625008,-4.625 0,-2.53522 2.067803,-4.59375 4.625008,-4.59375 z m -18,30.31249 c 0.820311,0 1.437591,0.633 1.437591,1.4375 0,0.8045 -0.61728,1.4375 -1.437591,1.4375 -0.819708,0 -1.437378,-0.633 -1.437378,-1.4375 0,-0.8045 0.61767,-1.4375 1.437378,-1.4375 z m -20.624988,10.6563 c 0.165189,-0.017 0.361311,0 0.531284,0 2.719417,0 4.875023,2.1472 4.875023,4.8437 0,2.6966 -2.155606,4.875 -4.875023,4.875 -2.719488,0 -4.906276,-2.1784 -4.906276,-4.875 0,-2.5279 1.896697,-4.5963 4.374992,-4.8437 z" fill="#000000" fill-opacity="1" fill-rule="evenodd" stroke="none" marker="none" visibility="visible" display="inline" overflow="visible"/></g><text x="0" y="115" fill="#000000" font-size="5px" font-weight="bold" font-family="'Helvetica Neue', Helvetica, Arial-Unicode, Arial, Sans-serif">Created by Royyan Razka</text><text x="0" y="120" fill="#000000" font-size="5px" font-weight="bold" font-family="'Helvetica Neue', Helvetica, Arial-Unicode, Arial, Sans-serif">from the Noun Project</text></svg>