<?xml version="1.0" encoding="utf-8"?>
<!-- Generator: Adobe Illustrator 16.0.0, SVG Export Plug-In . SVG Version: 6.00 Build 0)  -->
<!DOCTYPE svg PUBLIC "-//W3C//DTD SVG 1.1//EN" "http://www.w3.org/Graphics/SVG/1.1/DTD/svg11.dtd">
<svg version="1.1" id="Layer_1" xmlns="http://www.w3.org/2000/svg" xmlns:xlink="http://www.w3.org/1999/xlink" x="0px" y="0px"
	 width="800px" height="380px" viewBox="0 0 800 380" enable-background="new 0 0 800 380" xml:space="preserve">
<g>
	<path fill="#8F8F8F" d="M636.124,137.64c-41.403,0-74.971,33.564-74.971,74.971c0,41.404,33.567,74.972,74.971,74.972
		c41.407,0,74.972-33.567,74.972-74.972C711.096,171.205,677.531,137.64,636.124,137.64z M636.124,257.594
		c-24.843,0-44.982-20.14-44.982-44.983c0-24.843,20.14-44.982,44.982-44.982c24.844,0,44.983,20.14,44.983,44.982
		C681.108,237.455,660.968,257.594,636.124,257.594z"/>
	<path fill="#8F8F8F" d="M478.685,137.64c-41.404,0-74.972,33.564-74.972,74.971c0,41.404,33.567,74.972,74.972,74.972
		c41.407,0,74.972-33.567,74.972-74.972C553.656,171.205,520.092,137.64,478.685,137.64z M478.685,257.594
		c-24.843,0-44.982-20.14-44.982-44.983c0-24.843,20.14-44.982,44.982-44.982s44.982,20.14,44.982,44.982
		C523.667,237.455,503.528,257.594,478.685,257.594z"/>
	<path fill="#A24689" d="M163.876,137.64c-41.405,0-74.972,33.564-74.972,74.971c0,41.404,33.567,74.972,74.972,74.972
		c41.406,0,74.973-33.567,74.973-74.972C238.849,171.205,205.282,137.64,163.876,137.64z M163.876,257.594
		c-24.844,0-44.983-20.14-44.983-44.983c0-24.843,20.14-44.982,44.983-44.982c24.842,0,44.982,20.14,44.982,44.982
		C208.859,237.455,188.718,257.594,163.876,257.594z"/>
	<path fill="#8F8F8F" d="M381.295,92.418c-8.282,0-14.994,6.713-14.994,14.994v45.003c-12.531-9.413-28.105-14.993-44.984-14.993
		c-41.403,0-74.972,33.566-74.972,74.972s33.568,74.973,74.972,74.973c41.334,0,74.849-33.45,74.968-74.755h0.006V107.412
		C396.29,99.131,389.575,92.418,381.295,92.418z M321.317,257.378c-24.843,0-44.982-20.142-44.982-44.984
		s20.14-44.983,44.982-44.983s44.983,20.141,44.983,44.983S346.159,257.378,321.317,257.378z"/>
</g>
</svg>
