<?xml version="1.0" encoding="utf-8"?><!DOCTYPE svg PUBLIC "-//W3C//DTD SVG 1.1//EN" "http://www.w3.org/Graphics/SVG/1.1/DTD/svg11.dtd"><svg version="1.1" xmlns="http://www.w3.org/2000/svg" xmlns:xlink="http://www.w3.org/1999/xlink" x="0px" y="0px" viewBox="0 0 100 101.25" enable-background="new 0 0 100 81" xml:space="preserve"><path fill="#010101" d="M98,19h-4c-1.104,0-2,0.896-2,2v32c0,1.104,0.896,2,2,2h4c1.104,0,2-0.896,2-2V21
	C100,19.896,99.104,19,98,19z M97,31h-2v-7h2V31z"/><path fill="#010101" d="M84,6.25C84,2.812,81.562,0,78.125,0H6.25C2.813,0,0,2.812,0,6.25V62.5C0,65.938,2.813,69,6.25,69H25v2H12
	c-1.657,0-3,1.343-3,3v7h67v-7c0-1.657-1.343-3-3-3H58v-2h20.125C81.562,69,84,65.938,84,62.5V59h5V13h-5V6.25z M75,13v46H9H8.375
	V9.085V9H9h66V13z M84,53c-1.104,0-2-0.896-2-2s0.896-2,2-2s2,0.896,2,2S85.104,53,84,53z M86,44c0,1.104-0.896,2-2,2s-2-0.896-2-2
	s0.896-2,2-2S86,42.896,86,44z"/><text x="0" y="96" fill="#000000" font-size="5px" font-weight="bold" font-family="'Helvetica Neue', Helvetica, Arial-Unicode, Arial, Sans-serif">Created by Yarden Gilboa</text><text x="0" y="101" fill="#000000" font-size="5px" font-weight="bold" font-family="'Helvetica Neue', Helvetica, Arial-Unicode, Arial, Sans-serif">from the Noun Project</text></svg>