<svg xmlns="http://www.w3.org/2000/svg" xmlns:xlink="http://www.w3.org/1999/xlink" version="1.1" x="0px" y="0px" viewBox="0 0 68 85" style="enable-background:new 0 0 68 68;" xml:space="preserve"><style type="text/css">
	.st0{fill:#010101;}
</style><g><g><path class="st0" d="M66.8,46.4l-8.1-17.8V12.8c0-0.6-0.4-1-1-1h-3.2V2c0-0.6-0.4-1-1-1H40.2c-0.6,0-1,0.4-1,1v9.8H10.3    c-0.6,0-1,0.4-1,1v15.6L1.1,46.6C0.9,47,1,47.5,1.4,47.8V66c0,0.6,0.4,1,1,1H66c0.6,0,1-0.4,1-1V47.1C67,46.9,67,46.7,66.8,46.4z     M52.6,3v16.6H41.2v-6.8c0,0,0,0,0,0c0,0,0,0,0,0V3H52.6z M39.2,13.8v6.8c0,0.6,0.4,1,1,1h13.4c0.6,0,1-0.4,1-1v-6.8h2.2v13.9    H11.3V13.8H39.2z M10.9,29.8h46.2L64.4,46H3.5L10.9,29.8z M65,65H3.4V48H65V65z"/></g><g><path class="st0" d="M40.2,24.9h13.4c0.6,0,1-0.4,1-1s-0.4-1-1-1H40.2c-0.6,0-1,0.4-1,1S39.6,24.9,40.2,24.9z"/></g><g><path class="st0" d="M43.1,17.2h2.2c0.6,0,1-0.4,1-1c0-0.6-0.4-1-1-1h-2.2c-0.6,0-1,0.4-1,1C42.1,16.7,42.5,17.2,43.1,17.2z"/></g><g><path class="st0" d="M48.5,17.2h2.2c0.6,0,1-0.4,1-1c0-0.6-0.4-1-1-1h-2.2c-0.6,0-1,0.4-1,1C47.5,16.7,48,17.2,48.5,17.2z"/></g><g><path class="st0" d="M43.1,12.3h2.2c0.6,0,1-0.4,1-1c0-0.6-0.4-1-1-1h-2.2c-0.6,0-1,0.4-1,1C42.1,11.9,42.5,12.3,43.1,12.3z"/></g><g><path class="st0" d="M48.5,12.3h2.2c0.6,0,1-0.4,1-1c0-0.6-0.4-1-1-1h-2.2c-0.6,0-1,0.4-1,1C47.5,11.9,48,12.3,48.5,12.3z"/></g><g><path class="st0" d="M43.1,7.5h2.2c0.6,0,1-0.4,1-1c0-0.6-0.4-1-1-1h-2.2c-0.6,0-1,0.4-1,1C42.1,7,42.5,7.5,43.1,7.5z"/></g><g><path class="st0" d="M48.5,7.5h2.2c0.6,0,1-0.4,1-1c0-0.6-0.4-1-1-1h-2.2c-0.6,0-1,0.4-1,1C47.5,7,48,7.5,48.5,7.5z"/></g><g><path class="st0" d="M19.6,60.8h29.2c0.6,0,1-0.4,1-1v-6.4c0-0.6-0.4-1-1-1H19.6c-0.6,0-1,0.4-1,1v6.4    C18.6,60.4,19.1,60.8,19.6,60.8z M20.6,54.5h27.2v4.4H20.6V54.5z"/></g><g><path class="st0" d="M13.6,33.6h4.7c0.6,0,1-0.4,1-1c0-0.6-0.4-1-1-1h-4.7c-0.6,0-1,0.4-1,1C12.6,33.2,13,33.6,13.6,33.6z"/></g><g><path class="st0" d="M16.9,35.2h-4.7c-0.6,0-1,0.4-1,1c0,0.6,0.4,1,1,1h4.7c0.6,0,1-0.4,1-1C17.9,35.6,17.4,35.2,16.9,35.2z"/></g><g><path class="st0" d="M15.6,38.7h-4.7c-0.6,0-1,0.4-1,1c0,0.6,0.4,1,1,1h4.7c0.6,0,1-0.4,1-1C16.6,39.2,16.1,38.7,15.6,38.7z"/></g><g><path class="st0" d="M14.3,42.3H9.6c-0.6,0-1,0.4-1,1c0,0.6,0.4,1,1,1h4.7c0.6,0,1-0.4,1-1C15.3,42.7,14.8,42.3,14.3,42.3z"/></g><g><path class="st0" d="M28.2,32.6c0-0.6-0.4-1-1-1h-4.7c-0.6,0-1,0.4-1,1c0,0.6,0.4,1,1,1h4.7C27.8,33.6,28.2,33.2,28.2,32.6z"/></g><g><path class="st0" d="M25.9,35.2h-4.7c-0.6,0-1,0.4-1,1c0,0.6,0.4,1,1,1h4.7c0.6,0,1-0.4,1-1C26.9,35.6,26.4,35.2,25.9,35.2z"/></g><g><path class="st0" d="M24.6,38.7h-4.7c-0.6,0-1,0.4-1,1c0,0.6,0.4,1,1,1h4.7c0.6,0,1-0.4,1-1C25.6,39.2,25.1,38.7,24.6,38.7z"/></g><g><path class="st0" d="M23.3,42.3h-4.7c-0.6,0-1,0.4-1,1c0,0.6,0.4,1,1,1h4.7c0.6,0,1-0.4,1-1C24.3,42.7,23.8,42.3,23.3,42.3z"/></g><g><path class="st0" d="M37.2,31.6h-4.7c-0.6,0-1,0.4-1,1c0,0.6,0.4,1,1,1h4.7c0.6,0,1-0.4,1-1C38.2,32.1,37.8,31.6,37.2,31.6z"/></g><g><path class="st0" d="M35.9,35.2h-4.7c-0.6,0-1,0.4-1,1c0,0.6,0.4,1,1,1h4.7c0.6,0,1-0.4,1-1C36.9,35.6,36.4,35.2,35.9,35.2z"/></g><g><path class="st0" d="M34.6,38.7h-4.7c-0.6,0-1,0.4-1,1c0,0.6,0.4,1,1,1h4.7c0.6,0,1-0.4,1-1C35.6,39.2,35.1,38.7,34.6,38.7z"/></g><g><path class="st0" d="M33.3,42.3h-4.7c-0.6,0-1,0.4-1,1c0,0.6,0.4,1,1,1h4.7c0.6,0,1-0.4,1-1C34.3,42.7,33.8,42.3,33.3,42.3z"/></g><g><path class="st0" d="M53.6,31.6H42.1c-0.6,0-1,0.4-1,1v10.6c0,0.6,0.4,1,1,1h11.5c0.6,0,1-0.4,1-1V32.6    C54.6,32.1,54.2,31.6,53.6,31.6z M52.6,42.3h-9.5v-8.6h9.5V42.3z"/></g><g><path class="st0" d="M15.4,18.8h18.8c0.6,0,1-0.4,1-1c0-0.6-0.4-1-1-1H15.4c-0.6,0-1,0.4-1,1C14.4,18.4,14.8,18.8,15.4,18.8z"/></g><g><path class="st0" d="M15.4,24.3h18.8c0.6,0,1-0.4,1-1c0-0.6-0.4-1-1-1H15.4c-0.6,0-1,0.4-1,1C14.4,23.9,14.8,24.3,15.4,24.3z"/></g></g><text x="0" y="83" fill="#000000" font-size="5px" font-weight="bold" font-family="'Helvetica Neue', Helvetica, Arial-Unicode, Arial, Sans-serif">Created by Vectors Market</text><text x="0" y="88" fill="#000000" font-size="5px" font-weight="bold" font-family="'Helvetica Neue', Helvetica, Arial-Unicode, Arial, Sans-serif">from the Noun Project</text></svg>